<svg width="45" height="45" viewBox="0 0 45 45" fill="none" xmlns="http://www.w3.org/2000/svg">
<circle cx="22.5" cy="22.5" r="22.5" fill="#E1F1FF"/>
<circle cx="22.5" cy="14.5" r="4.5" stroke="#0094FF" stroke-width="2"/>
<mask id="path-3-inside-1" fill="white">
<path fill-rule="evenodd" clip-rule="evenodd" d="M14 35.7841H31C29.676 27.1317 26.3695 21 22.5 21C18.6305 21 15.324 27.1317 14 35.7841Z"/>
</mask>
<path d="M14 35.7841L12.023 35.4815L11.6707 37.7841H14V35.7841ZM31 35.7841V37.7841H33.3293L32.977 35.4815L31 35.7841ZM14 37.7841H31V33.7841H14V37.7841ZM22.5 23C23.3036 23 24.5793 23.6796 25.9629 26.1305C27.2812 28.4661 28.3835 31.9076 29.023 36.0866L32.977 35.4815C32.2924 31.0082 31.0795 27.0577 29.4462 24.1643C27.8781 21.3863 25.5658 19 22.5 19V23ZM15.977 36.0866C16.6165 31.9076 17.7188 28.4661 19.0371 26.1305C20.4207 23.6796 21.6963 23 22.5 23V19C19.4342 19 17.1219 21.3863 15.5538 24.1643C13.9205 27.0577 12.7075 31.0082 12.023 35.4815L15.977 36.0866Z" fill="#0094FF" mask="url(#path-3-inside-1)"/>
</svg>
